<svg width="23" height="23" viewBox="0 0 23 23" fill="none" xmlns="http://www.w3.org/2000/svg">
<path d="M7.65536 11.4363C7.65536 9.34771 9.34808 7.65415 11.4367 7.65415C13.5254 7.65415 15.219 9.34771 15.219 11.4363C15.219 13.5248 13.5254 15.2184 11.4367 15.2184C9.34808 15.2184 7.65536 13.5248 7.65536 11.4363ZM5.61074 11.4363C5.61074 14.6538 8.21903 17.262 11.4367 17.262C14.6544 17.262 17.2627 14.6538 17.2627 11.4363C17.2627 8.2187 14.6544 5.61052 11.4367 5.61052C8.21903 5.61052 5.61074 8.2187 5.61074 11.4363ZM16.1318 5.37953C16.1315 6.13144 16.7409 6.74122 17.4928 6.74153C18.2448 6.74183 18.8546 6.13253 18.8549 5.38062C18.8552 4.62871 18.2458 4.01892 17.4939 4.01862H17.4934C16.7418 4.01897 16.1325 4.62797 16.1318 5.37953ZM6.85298 20.6712C5.7468 20.6208 5.14556 20.4366 4.746 20.2809C4.21628 20.0747 3.83833 19.8291 3.44095 19.4323C3.04357 19.0355 2.79759 18.6579 2.59228 18.1282C2.43652 17.7288 2.25226 17.1274 2.20198 16.0213C2.14697 14.8254 2.13599 14.4661 2.13599 11.4364C2.13599 8.40658 2.14788 8.04834 2.20198 6.85144C2.25235 5.7453 2.43797 5.14508 2.59228 4.74454C2.7985 4.21485 3.04411 3.83691 3.44095 3.43954C3.83778 3.04218 4.21538 2.79621 4.746 2.5909C5.14538 2.43515 5.7468 2.2509 6.85298 2.20062C8.04893 2.14562 8.40819 2.13464 11.4367 2.13464C14.4653 2.13464 14.8249 2.14653 16.0218 2.20062C17.128 2.25099 17.7283 2.43661 18.1288 2.5909C18.6585 2.79621 19.0365 3.04273 19.4339 3.43954C19.8312 3.83636 20.0763 4.21485 20.2825 4.74454C20.4383 5.1439 20.6226 5.7453 20.6728 6.85144C20.7278 8.04834 20.7388 8.40658 20.7388 11.4364C20.7388 14.4661 20.7278 14.8244 20.6728 16.0213C20.6225 17.1274 20.4373 17.7286 20.2825 18.1282C20.0763 18.6579 19.8307 19.0358 19.4339 19.4323C19.037 19.8287 18.6585 20.0747 18.1288 20.2809C17.7294 20.4367 17.128 20.6209 16.0218 20.6712C14.8259 20.7262 14.4666 20.7372 11.4367 20.7372C8.40683 20.7372 8.04857 20.7262 6.85298 20.6712ZM6.75904 0.159528C5.5512 0.214531 4.72585 0.406042 4.00507 0.686502C3.2586 0.976129 2.62668 1.36469 1.99521 1.99513C1.36374 2.62558 0.976164 3.25847 0.686526 4.00491C0.406055 4.72612 0.214536 5.55098 0.159531 6.75877C0.103618 7.96847 0.0908203 8.35521 0.0908203 11.4363C0.0908203 14.5173 0.103618 14.9041 0.159531 16.1138C0.214536 17.3217 0.406055 18.1464 0.686526 18.8676C0.976164 19.6136 1.36383 20.2472 1.99521 20.8774C2.62659 21.5076 3.2586 21.8956 4.00507 22.186C4.72721 22.4665 5.5512 22.658 6.75904 22.713C7.96942 22.768 8.35554 22.7817 11.4367 22.7817C14.5179 22.7817 14.9047 22.7689 16.1144 22.713C17.3223 22.658 18.1472 22.4665 18.8684 22.186C19.6144 21.8956 20.2468 21.5079 20.8782 20.8774C21.5097 20.247 21.8965 19.6136 22.1869 18.8676C22.4674 18.1464 22.6598 17.3216 22.7139 16.1138C22.7689 14.9032 22.7817 14.5173 22.7817 11.4363C22.7817 8.35521 22.7689 7.96847 22.7139 6.75877C22.6589 5.55089 22.4674 4.72567 22.1869 4.00491C21.8965 3.25893 21.5087 2.62657 20.8782 1.99513C20.2478 1.36369 19.6144 0.976129 18.8693 0.686502C18.1472 0.406042 17.3223 0.213624 16.1153 0.159528C14.9056 0.104526 14.5188 0.0908203 11.4376 0.0908203C8.35645 0.0908203 7.96942 0.103618 6.75904 0.159528Z" fill="white"/>
</svg>
