<svg width="23" height="20" viewBox="0 0 23 20" fill="none" xmlns="http://www.w3.org/2000/svg">
<path d="M22.7817 3.01038C21.9473 3.37774 21.0509 3.62597 20.1085 3.73816C21.0809 3.1601 21.8083 2.25028 22.1551 1.17849C21.2416 1.71762 20.2418 2.09711 19.1991 2.30046C18.498 1.55665 17.5693 1.06364 16.5572 0.897977C15.5451 0.732312 14.5063 0.903257 13.6021 1.38427C12.6978 1.86529 11.9787 2.62946 11.5563 3.55816C11.134 4.48685 11.0321 5.52809 11.2664 6.52024C9.41531 6.4279 7.60445 5.94987 5.95135 5.11719C4.29824 4.28451 2.83983 3.11578 1.67077 1.68685C1.27104 2.37195 1.04119 3.16626 1.04119 4.0122C1.04074 4.77374 1.2295 5.52362 1.5907 6.1953C1.95191 6.86698 2.4744 7.43969 3.11181 7.86263C2.37258 7.83926 1.64966 7.6408 1.00321 7.28377V7.34334C1.00314 8.41144 1.375 9.44666 2.0557 10.2734C2.73639 11.1001 3.684 11.6673 4.73773 11.8789C4.05197 12.0633 3.333 12.0904 2.63513 11.9583C2.93243 12.8773 3.51154 13.681 4.29139 14.2568C5.07125 14.8325 6.0128 15.1516 6.98424 15.1693C5.33517 16.4555 3.29857 17.1532 1.20208 17.1501C0.830709 17.1502 0.459651 17.1287 0.0908203 17.0856C2.21888 18.445 4.6961 19.1665 7.22607 19.1637C15.7904 19.1637 20.4723 12.1162 20.4723 6.00394C20.4723 5.80536 20.4673 5.60479 20.4583 5.40622C21.369 4.75188 22.1551 3.9416 22.7797 3.01335L22.7817 3.01038Z" fill="white"/>
</svg>
